<svg xmlns="http://www.w3.org/2000/svg" viewBox="0 0 3000 3000" width="3000" height="3000"><g transform="translate(686.4 738.0) rotate(0.0 660.5999999999999 651.5999999999999) scale(1.8591351897480202 1.859329032184426)"><svg width="710.653" height="700.898" viewBox="0 0 710.653 700.898"><path d="m602.374 109.387-.262 292.053 106.55-61.244.991-292.611z"/><path d="M602.112 402.44a.999.999 0 0 1-1-1.001l.262-292.053a1 1 0 0 1 .501-.866l107.279-61.802a1.003 1.003 0 0 1 1.499.87l-.991 292.611a.999.999 0 0 1-.502.864l-106.55 61.245a1.003 1.003 0 0 1-.498.132zm1.261-292.475-.259 289.746 104.55-60.095.983-290.298z"/><path d="m520.853 63.084.531 293.466 80.728 44.89.262-292.053z" fill="#87c159"/><path d="M602.112 402.44a1 1 0 0 1-.486-.126l-80.729-44.891a1.002 1.002 0 0 1-.514-.872l-.53-293.466a1 1 0 0 1 1.494-.872l81.521 46.303c.312.178.506.51.506.871l-.262 292.053a1 1 0 0 1-1 1zm-79.729-46.479 78.731 43.78.259-289.772-79.517-45.165z"/><path d="M628.231 1 520.853 63.084l81.521 46.303 107.279-61.802z" fill="#fff"/><path d="M602.374 110.387a1 1 0 0 1-.494-.13l-81.521-46.303a1.002 1.002 0 0 1-.007-1.736L627.73.134a1 1 0 0 1 .998-.002l81.422 46.585a1 1 0 0 1 .002 1.735l-107.279 61.802a.998.998 0 0 1-.499.133zm-79.51-47.311 79.506 45.159 105.274-60.647-79.41-45.434zm-89.257 292.543-.263 142.477 106.55-61.244.992-143.035z"/><path d="M433.344 499.096a1 1 0 0 1-1-1.002l.264-142.477a.998.998 0 0 1 .501-.864l107.278-61.803a.998.998 0 0 1 1.499.873l-.992 143.035a1 1 0 0 1-.502.86l-106.55 61.244a.985.985 0 0 1-.498.134zm1.262-142.899-.26 140.168 104.551-60.095.977-140.716z"/><path d="m352.085 309.316.531 143.89 80.728 44.89.263-142.477z" fill="#dbf301"/><path d="M433.344 499.096a1 1 0 0 1-.486-.126l-80.727-44.89a1 1 0 0 1-.514-.87l-.531-143.89a1.002 1.002 0 0 1 1.494-.873l81.523 46.304a1 1 0 0 1 .506.871l-.264 142.477a.997.997 0 0 1-1.001.997zm-79.73-46.48 78.732 43.781.26-140.197-79.515-45.163z"/><path d="m459.464 247.232-107.379 62.084 81.522 46.303 107.279-61.802z" fill="#fff"/><path d="M433.607 356.619a1 1 0 0 1-.494-.131l-81.522-46.303a.998.998 0 0 1-.006-1.736l107.378-62.084a1 1 0 0 1 .998-.002l81.422 46.585a1.001 1.001 0 0 1 .002 1.735l-107.278 61.802a1.003 1.003 0 0 1-.5.134zm-79.511-47.311 79.507 45.159 105.273-60.647-79.41-45.434z"/><path d="m257.678 295.227-.263 304.517 106.55-61.244.992-305.076z"/><path d="M257.415 600.744a.999.999 0 0 1-1-1.001l.263-304.517a1 1 0 0 1 .501-.866l107.279-61.803a1 1 0 0 1 1.499.87l-.992 305.076a.998.998 0 0 1-.502.864l-106.549 61.244a1 1 0 0 1-.499.133zm1.263-304.939-.261 302.209 104.55-60.095.984-302.763z"/><path d="m176.156 248.924.531 305.93 80.728 44.89.263-304.517z" fill="#adc4cb"/><path d="M257.415 600.744a1 1 0 0 1-.486-.126l-80.728-44.891a.998.998 0 0 1-.514-.872l-.531-305.93a1.002 1.002 0 0 1 1.494-.872l81.522 46.303c.313.178.507.51.506.871l-.263 304.517a.998.998 0 0 1-1 1zm-79.729-46.479 78.73 43.78.261-302.236-79.519-45.165z"/><path d="m283.534 186.84-107.378 62.084 81.522 46.303 107.279-61.803z" fill="#fff"/><path d="M257.678 296.227a1 1 0 0 1-.494-.13l-81.522-46.303a.998.998 0 0 1-.006-1.736l107.378-62.084a1 1 0 0 1 .997-.002l81.423 46.584a1 1 0 0 1 .002 1.735l-107.279 61.803a.995.995 0 0 1-.499.133zm-79.511-47.311 79.507 45.159 105.273-60.648-79.412-45.433zM82.521 445.239l-.262 254.659 106.55-61.244.991-255.217z"/><path d="M82.259 700.898a1 1 0 0 1-1-1.001l.262-254.659c0-.357.191-.688.501-.865l107.279-61.802a.998.998 0 0 1 1.499.87l-.991 255.217a.999.999 0 0 1-.501.863l-106.55 61.244a1 1 0 0 1-.499.133zm1.262-255.081-.26 252.352 104.551-60.095.981-252.902z"/><path d="m1 398.936.531 256.072 80.728 44.89.262-254.659z" fill="#adc4cb"/><path d="M82.259 700.898a1 1 0 0 1-.486-.126l-80.728-44.89a1 1 0 0 1-.514-.872L0 398.938a.998.998 0 0 1 1.494-.871l81.521 46.304c.313.178.507.51.506.87L83.259 699.9a.998.998 0 0 1-1 .998zm-79.73-46.479 78.731 43.78.26-252.378-79.517-45.166z"/><path d="M108.378 336.852 1 398.936l81.521 46.303L189.8 383.437z" fill="#fff"/><path d="M82.521 446.239a1 1 0 0 1-.494-.131L.506 399.805A.998.998 0 0 1 .5 398.07l107.378-62.083a1 1 0 0 1 .997-.002l81.422 46.585a.999.999 0 0 1 .002 1.734L83.02 446.105a.999.999 0 0 1-.499.134zm-79.51-47.311 79.506 45.159 105.274-60.646-79.411-45.435z"/></svg></g><g transform="translate(2320.7999999999997 1273.2) rotate(0.0 188.4000000000001 204.5999999999999) scale(1.5350207154467579 1.5323145363924695)"><svg width="245.469" height="267.047" viewBox="0 0 245.469 267.047"><path d="M239.844 199.101c0 36.973-52.127 66.946-116.428 66.946S6.988 236.075 6.988 199.101c0-3.667-.986-30.793 0-34.3 8.96-31.852 58.504-32.646 116.428-32.646 58.536 0 116.428 36.238 116.428 36.238z" fill="#dbf301"/><path d="M123.416 267.047c-64.75 0-117.428-30.48-117.428-67.946 0-.815-.051-2.881-.116-5.498-.315-12.682-.589-26.434.154-29.073 9.388-33.375 61.85-33.375 117.391-33.375 58.15 0 116.377 36.027 116.958 36.391a1 1 0 0 1 .469.848v30.708c0 37.465-52.678 67.946-117.428 67.946zm0-133.892c-54.762 0-106.487 0-115.466 31.917-.723 2.57-.288 20.071-.08 28.482.068 2.733.117 4.708.117 5.547 0 36.363 51.781 65.946 115.428 65.946s115.428-29.583 115.428-65.946v-30.147c-5.634-3.411-60.616-35.799-115.428-35.799z"/><ellipse cx="123.416" cy="168.394" fill="#dbf301" rx="116.428" ry="66.946"/><path d="M123.416 236.34c-64.75 0-117.428-30.48-117.428-67.946s52.678-67.946 117.428-67.946 117.428 30.48 117.428 67.946-52.678 67.946-117.428 67.946zm0-133.892c-63.647 0-115.428 29.583-115.428 65.946s51.781 65.946 115.428 65.946 115.428-29.583 115.428-65.946-51.781-65.946-115.428-65.946z"/><ellipse cx="123.203" cy="167.666" fill="#dbf301" rx="93.506" ry="47.299"/><path d="M123.203 215.965c-52.111 0-94.506-21.667-94.506-48.299s42.395-48.299 94.506-48.299 94.506 21.667 94.506 48.299-42.395 48.299-94.506 48.299zm0-94.598c-51.008 0-92.506 20.77-92.506 46.299s41.498 46.299 92.506 46.299 92.506-20.77 92.506-46.299-41.498-46.299-92.506-46.299zm20.201 144.697a1 1 0 0 1-1-1v-30.708a1 1 0 0 1 2 0v30.708a1 1 0 0 1-1 1zm-36.843.367a1 1 0 0 1-1-1v-30.708a1 1 0 0 1 2 0v30.708a1 1 0 0 1-1 1zm94.226-16.303a1 1 0 0 1-1-1V218.42a1 1 0 0 1 2 0v30.708a1 1 0 0 1-1 1zm9.372-5.46a1 1 0 0 1-1-1V212.96a1 1 0 0 1 2 0v30.708a1 1 0 0 1-1 1z"/><path d="M244.469 160.069c0 36.973-52.127 66.946-116.428 66.946S11.613 197.043 11.613 160.069c0-3.667-.986-30.793 0-34.3 8.96-31.852 58.504-32.646 116.428-32.646 58.536 0 116.428 36.238 116.428 36.238z" fill="#dbf301"/><path d="M128.041 228.016c-64.75 0-117.428-30.48-117.428-67.946 0-.815-.051-2.881-.116-5.497-.315-12.682-.589-26.434.154-29.074C20.039 92.124 72.5 92.124 128.042 92.124c58.15 0 116.377 36.027 116.959 36.391a1 1 0 0 1 .469.848v30.708c0 37.466-52.678 67.946-117.428 67.946zm0-133.893c-54.762 0-106.487 0-115.465 31.917-.723 2.571-.289 20.071-.08 28.482.068 2.733.117 4.708.117 5.547 0 36.363 51.781 65.946 115.428 65.946s115.428-29.583 115.428-65.946v-30.147c-5.634-3.411-60.616-35.799-115.428-35.799z"/><ellipse cx="128.041" cy="129.362" fill="#dbf301" rx="116.428" ry="66.946"/><path d="M128.041 197.308c-64.75 0-117.428-30.48-117.428-67.946s52.678-67.947 117.428-67.947 117.428 30.48 117.428 67.946-52.678 67.946-117.428 67.946zm0-133.892c-63.647 0-115.428 29.583-115.428 65.946s51.781 65.946 115.428 65.946 115.428-29.583 115.428-65.946-51.781-65.946-115.428-65.946z"/><ellipse cx="127.828" cy="128.634" fill="#dbf301" rx="93.506" ry="47.299"/><path d="M127.827 176.933c-52.111 0-94.506-21.667-94.506-48.299s42.395-48.299 94.506-48.299 94.506 21.667 94.506 48.299-42.395 48.299-94.506 48.299zm0-94.598c-51.008 0-92.506 20.77-92.506 46.299s41.498 46.299 92.506 46.299 92.506-20.77 92.506-46.299-41.498-46.299-92.506-46.299zM64.716 217.257a1 1 0 0 1-1-1v-30.708a1 1 0 0 1 2 0v30.708a1 1 0 0 1-1 1zM41.27 205.26a1 1 0 0 1-1-1v-30.708a1 1 0 0 1 2 0v30.708a1 1 0 0 1-1 1zm149.607 12.225a1 1 0 0 1-1-1v-30.708a1 1 0 0 1 2 0v30.708a1 1 0 0 1-1 1z"/><path d="M234.295 129.362c0 36.973-52.127 66.946-116.428 66.946S1.438 166.335 1.438 129.362c0-3.667-.986-30.793 0-34.3 8.96-31.852 58.504-32.646 116.428-32.646 58.536 0 116.428 36.238 116.428 36.238v30.708z" fill="#dbf301"/><path d="M117.867 197.308C53.116 197.308.438 166.827.438 129.362c0-.815-.051-2.881-.116-5.497-.315-12.683-.589-26.434.154-29.074 9.389-33.375 61.85-33.375 117.391-33.375 58.15 0 116.377 36.027 116.958 36.391a1 1 0 0 1 .469.848v30.708c0 37.465-52.678 67.946-117.428 67.946zm0-133.892c-54.762 0-106.487 0-115.466 31.917-.723 2.57-.288 20.071-.08 28.482.068 2.733.117 4.708.117 5.547 0 36.363 51.781 65.946 115.428 65.946s115.428-29.583 115.428-65.946V99.215c-5.634-3.411-60.616-35.799-115.428-35.799z"/><ellipse cx="117.866" cy="98.654" fill="#dbf301" rx="116.428" ry="66.946"/><path d="M117.867 166.6C53.116 166.6.438 136.12.438 98.654s52.678-67.946 117.429-67.946 117.428 30.48 117.428 67.946S182.617 166.6 117.867 166.6zm0-133.892c-63.648 0-115.429 29.583-115.429 65.946S54.219 164.6 117.866 164.6s115.428-29.583 115.428-65.946-51.781-65.946-115.428-65.946z"/><ellipse cx="117.653" cy="97.926" fill="#dbf301" rx="93.506" ry="47.299"/><path d="M117.653 146.225c-52.111 0-94.506-21.667-94.506-48.299s42.395-48.299 94.506-48.299 94.506 21.667 94.506 48.299-42.395 48.299-94.506 48.299zm0-94.598c-51.008 0-92.506 20.77-92.506 46.299s41.498 46.299 92.506 46.299 92.506-20.77 92.506-46.299-41.498-46.299-92.506-46.299zm-12.234 145.302a1 1 0 0 1-1-1v-30.708a1 1 0 0 1 2 0v30.708a1 1 0 0 1-1 1zm-6.572-.766a1 1 0 0 1-1-1v-30.708a1 1 0 0 1 2 0v30.708a1 1 0 0 1-1 1zm113.936-27.021a1 1 0 0 1-1-1v-30.708a1 1 0 0 1 2 0v30.708a1 1 0 0 1-1 1z"/><path d="M244.469 98.654c0 36.973-52.127 66.946-116.428 66.946S11.613 135.627 11.613 98.654c0-3.667-.986-30.793 0-34.3 8.96-31.852 58.504-32.646 116.428-32.646 58.536 0 116.428 36.238 116.428 36.238z" fill="#dbf301"/><path d="M128.041 166.6c-64.75 0-117.428-30.48-117.428-67.946 0-.814-.051-2.881-.116-5.497-.315-12.683-.589-26.434.154-29.074C20.039 30.708 72.5 30.708 128.042 30.708c58.15 0 116.377 36.027 116.959 36.391a1 1 0 0 1 .469.848v30.708c0 37.466-52.678 67.946-117.428 67.946zm0-133.892c-54.762 0-106.487 0-115.465 31.917-.723 2.571-.289 20.072-.08 28.482.068 2.732.117 4.707.117 5.546 0 36.363 51.781 65.946 115.428 65.946s115.428-29.583 115.428-65.946V68.506c-5.634-3.411-60.616-35.799-115.428-35.799z"/><ellipse cx="128.041" cy="67.946" fill="#dbf301" rx="116.428" ry="66.946"/><path d="M128.041 135.892c-64.75 0-117.428-30.48-117.428-67.946S63.291 0 128.041 0s117.428 30.48 117.428 67.946-52.678 67.946-117.428 67.946zm0-133.893C64.393 2 12.613 31.583 12.613 67.946s51.781 65.946 115.428 65.946 115.428-29.583 115.428-65.946S191.688 2 128.041 2z"/><ellipse cx="127.828" cy="67.218" fill="#dbf301" rx="93.506" ry="47.299"/><path d="M127.827 115.517c-52.111 0-94.506-21.667-94.506-48.299s42.395-48.299 94.506-48.299 94.506 21.667 94.506 48.299-42.395 48.299-94.506 48.299zm0-94.598c-51.008 0-92.506 20.77-92.506 46.299s41.498 46.299 92.506 46.299 92.506-20.77 92.506-46.299-41.498-46.299-92.506-46.299zM83.31 161.479a1 1 0 0 1-1-1v-30.707a1 1 0 0 1 2 0v30.707a1 1 0 0 1-1 1zm-13.201-3.742a1 1 0 0 1-1-1v-30.708a1 1 0 0 1 2 0v30.708a1 1 0 0 1-1 1zm135.302-8.057a1 1 0 0 1-1-1v-30.708a1 1 0 0 1 2 0v30.708a1 1 0 0 1-1 1z"/></svg></g><g transform="translate(2149.2 1406.3999999999999) rotate(-106.8174618906816 141.0 147.60000000000002) scale(1.367392063307343 1.3775595915853136)"><svg width="206.232" height="214.292" viewBox="0 0 206.232 214.292"><path d="M183.524 186.007s-10.192 8.766-15.598 13.406c-32.52 27.909-91.609 12.401-131.978-34.638-40.37-47.039-46.65-106.954-14.212-135.706 4.627-4.101 14.953-12.777 14.953-12.777z" fill="#dbf301"/><path d="M127.807 214.239c-30.353 0-65.688-17.432-92.619-48.813-40.893-47.65-47.094-107.874-14.115-137.105 4.583-4.063 14.869-12.708 14.973-12.794a1.002 1.002 0 0 1 1.4.111l146.835 169.715a1.002 1.002 0 0 1-.104 1.413s-10.193 8.767-15.599 13.406c-11.106 9.531-25.292 14.067-40.77 14.067zM36.578 17.693c-2.465 2.076-10.339 8.722-14.178 12.125C6.96 43.503-.095 64.862 2.534 89.96c2.642 25.227 14.779 51.565 34.172 74.164 39.946 46.546 98.519 62.036 130.568 34.53 4.517-3.876 12.375-10.633 14.837-12.751z"/><ellipse cx="111.367" cy="100.05" fill="#dbf301" rx="77.595" ry="112.237" transform="matrix(.75886226 -.65125115 .65125115 .75886226 -38.303 96.654)"/><path d="M144.343 200.048c-30.353 0-65.688-17.432-92.619-48.813-19.656-22.903-31.97-49.742-34.675-75.574-2.719-25.968 4.586-47.824 20.572-61.542 32.886-28.222 92.725-12.636 133.388 34.746 19.656 22.903 31.97 49.742 34.675 75.574 2.719 25.968-4.586 47.824-20.572 61.542-11.106 9.531-25.292 14.067-40.769 14.067zM78.431 2.021c-15.019 0-28.755 4.388-39.508 13.616-15.472 13.278-22.534 34.521-19.885 59.816 2.663 25.432 14.81 51.882 34.203 74.479 39.946 46.546 98.519 62.036 130.568 34.53 15.472-13.278 22.534-34.521 19.885-59.816-2.663-25.432-14.81-51.882-34.203-74.479-26.543-30.928-61.314-48.146-91.06-48.146z"/><ellipse cx="110.918" cy="98.549" fill="#dbf301" rx="57.06" ry="88.909" transform="matrix(.75886226 -.65125115 .65125115 .75886226 -37.434 96)"/><path d="M140.883 176.541c-23.559 0-51.991-14.506-74.024-40.18-15.59-18.166-25.708-39.156-28.492-59.105-2.807-20.111 2.165-36.779 13.998-46.935s29.063-12.541 48.515-6.714c19.296 5.779 38.508 18.965 54.097 37.13 15.59 18.166 25.708 39.156 28.492 59.105 2.807 20.111-2.165 36.779-13.998 46.935-7.715 6.621-17.625 9.764-28.588 9.764zM80.987 22.489c-10.727 0-20.099 3.152-27.32 9.35-11.299 9.696-16.029 25.728-13.32 45.141 2.732 19.574 12.686 40.201 28.029 58.079 21.649 25.226 49.51 39.524 72.444 39.526 10.508 0 19.978-3 27.348-9.325 11.299-9.696 16.029-25.728 13.32-45.141-2.732-19.574-12.686-40.201-28.029-58.079s-34.22-30.847-53.154-36.517c-6.775-2.029-13.263-3.034-19.319-3.034z"/></svg></g><g transform="translate(822.0 486.0) rotate(0.0 596.4 492.6) scale(1.9742199447853979 1.968435501369633)"><svg width="604.188" height="500.499" viewBox="0 0 604.188 500.499"><g stroke="#000" stroke-linecap="round" stroke-linejoin="round" stroke-miterlimit="10" stroke-width="2"><path d="M568.149 71.643 369.282 381.982 201.947 224.729 28.752 472.345v27.154l171.211-247.901L367.471 408.24 568.223 96.796z"/><path d="M537.411 55.6 343.966 358.232l25.35 23.697L568.149 71.643l35.039 25.997L594.145 1l-90.078 31.994z" fill="#dbf301"/><path d="m504.067 32.994.065 24.632 22.654 14.596L537.411 55.6zm64.082 38.649.074 25.153 34.965 23.528V97.64z" fill="#fff"/><path d="m174.198 206.942 27.749 17.787L28.752 472.345 1 458.802z" fill="#dbf301"/><path d="M1 458.802v27.106l27.752 13.591v-27.154z" fill="#fff"/></g></svg></g><g transform="translate(2860.7999999999997 1618.8) rotate(0.0 -866.3999999999999 501.6) scale(-2.5017469493355815 2.4973115067511054)"><svg width="692.636" height="401.712" viewBox="0 0 692.636 401.712"><path d="M306.496 400.712 1 223.369 385.125 1l306.511 175.322z" fill="#FFF"/><path d="M306.496 401.712a.998.998 0 0 1-.502-.135L.498 224.234a1 1 0 0 1 .001-1.73L384.624.135a1 1 0 0 1 .997-.003l306.512 175.322a.998.998 0 0 1 .007 1.732L307 401.576a.999.999 0 0 1-.504.136zM2.994 223.37l303.501 176.185L689.637 176.33 385.128 2.154z"/><g fill="#87C159"><path d="M596.116 201.856a.988.988 0 0 1-.498-.134l-240.384-138.6a.999.999 0 1 1 .998-1.733l240.384 138.6a.999.999 0 0 1-.5 1.867zm-34.602 18.686a.988.988 0 0 1-.495-.132L320.239 82.73a1.001 1.001 0 0 1 .992-1.737l240.78 137.68a1.001 1.001 0 0 1-.497 1.869zm-34.203 19.95a.988.988 0 0 1-.495-.132l-240.78-137.68a1.001 1.001 0 0 1 .992-1.737l240.78 137.68a1.001 1.001 0 0 1-.497 1.869zm-35.016 19.8a.988.988 0 0 1-.495-.132L251.02 122.48a1.001 1.001 0 0 1 .992-1.737l240.779 137.68a1.001 1.001 0 0 1-.497 1.869zm-34.521 19.64a.988.988 0 0 1-.495-.132L216.5 142.12a1.001 1.001 0 0 1 .992-1.737l240.779 137.68a1.001 1.001 0 0 1-.497 1.869zm-34.627 20.278a.988.988 0 0 1-.495-.132l-240.78-137.68a1.001 1.001 0 0 1 .992-1.737l240.78 137.68a1.001 1.001 0 0 1-.497 1.869zm-73.932 40.982a.988.988 0 0 1-.495-.132L107.94 203.381a1.001 1.001 0 0 1 .992-1.737l240.779 137.68a1.001 1.001 0 0 1-.497 1.869z"/></g></svg></g><g transform="translate(1569.6 2104.7999999999997) rotate(0.0 -647.4 351.60000000000014) scale(-0.972604375818297 0.9738290370559125)"><svg width="1331.271" height="722.098" viewBox="0 0 1331.271 722.098"><path d="M1 463.473v7.73l430.064 249.895s127.625-47.798 247.859-126.64c102.386-67.138 117.836-82.417 209.729-145.867 201.234-138.949 319.249-177.587 319.249-177.587v-7.73z"/><path d="M431.064 722.098c-.175 0-.348-.046-.502-.135L.497 472.067a1.001 1.001 0 0 1-.497-.864v-7.73c0-.489.354-.906.836-.987l1206.9-200.198a1.001 1.001 0 0 1 1.164.987v7.73a1 1 0 0 1-.689.95c-.294.096-30.103 9.964-84.091 36.664-49.829 24.644-131.03 69.075-234.9 140.795-35.802 24.721-60.482 42.476-82.257 58.141-34.871 25.087-64.987 46.753-127.492 87.739-118.951 78.001-246.779 126.261-248.056 126.74a.99.99 0 0 1-.351.064zM2 470.627l429.155 249.367c8.382-3.189 131.977-50.803 247.219-126.372 62.469-40.963 92.568-62.617 127.421-87.69 21.782-15.67 46.471-33.432 82.288-58.163 191.203-132.022 308.794-174.031 318.817-177.481v-5.833L2 464.321z"/><path d="M763.247 57.498s-137.554 59.441-239.494 128.277C417.306 257.654 419.99 276.18 341.945 325.313 212.155 407.023 92.31 469.667 92.31 469.667l337.455 200.507s139.912-59.934 241.384-133.79c74.385-54.141 135.845-95.674 204.896-143.353 151.213-104.41 239.513-132.648 239.513-132.648z" fill="#fff"/><path d="M429.764 671.174c-.177 0-.354-.047-.511-.14L91.798 470.526a1 1 0 0 1 .047-1.746c1.198-.626 121.297-63.562 249.566-144.314 37.868-23.84 56.587-40.365 78.262-59.499 22.855-20.177 48.76-43.045 103.519-80.021C624.044 116.845 761.474 57.175 762.85 56.58c.29-.125.622-.106.896.051l352.31 202.884a1 1 0 0 1-.194 1.819c-.221.071-22.517 7.285-62.979 27.147-37.345 18.332-98.241 51.494-176.27 105.372-13.744 9.49-27.188 18.737-40.492 27.888-53.902 37.075-104.814 72.094-164.383 115.451-100.402 73.077-240.179 133.301-241.579 133.901a1.008 1.008 0 0 1-.395.081zM94.357 469.72l335.479 199.334c8.992-3.896 143.412-62.651 240.724-133.479 59.591-43.372 110.513-78.399 164.427-115.481 13.303-9.151 26.746-18.396 40.489-27.886 78.163-53.97 139.172-87.189 176.589-105.553 33.513-16.448 54.623-24.251 61.08-26.508L763.184 58.616c-8.86 3.864-141.103 61.968-238.872 127.987-54.651 36.904-80.504 59.727-103.314 79.863-21.74 19.192-40.516 35.767-78.52 59.693C222.136 401.921 108.981 462.008 94.357 469.72z"/><path d="M778.427 15.683S649.59 61.731 513.928 153.338C372.269 248.995 364.297 262.424 260.436 327.81 87.712 436.55 1 463.473 1 463.473l430.064 249.895s127.625-47.798 247.859-126.639c102.386-67.138 117.836-82.417 209.729-145.867C1089.885 301.913 1207.9 263.275 1207.9 263.275zM675.151 534.27c-101.472 73.856-241.384 133.79-241.384 133.79L96.312 467.553s119.845-62.644 249.636-144.354a729.261 729.261 0 0 0 5.734-3.651c2.017 73.676 84.165 151.105 199.558 182.073 49.999 13.418 102.722 17.938 149.942 13.832a4949.14 4949.14 0 0 0-26.031 18.817zm204.895-143.353c-8.343 5.761-16.573 11.43-24.731 17.045 3.462-74.634-73.209-151.319-191.606-183.093-58.067-15.584-121.427-20.131-175.746-13.2 11.378-8.396 24.446-17.644 39.792-28.007C629.696 114.825 767.25 55.385 767.25 55.385l352.31 202.884c-.001 0-88.301 28.238-239.514 132.648z" fill="#87c159"/><path d="M431.064 714.368c-.175 0-.348-.046-.502-.135L.498 464.338a1 1 0 0 1 .206-1.82c.217-.067 22.152-6.96 64.887-27.036 39.442-18.529 105.17-52.397 194.313-108.517 57.023-35.9 84.425-55.624 122.351-82.923 29.964-21.568 67.254-48.41 131.114-91.532C647.582 61.881 776.801 15.203 778.09 14.742c.275-.099.582-.071.836.075L1208.4 262.408a.999.999 0 0 1-.189 1.816c-.294.096-30.103 9.964-84.091 36.664-49.829 24.644-131.03 69.075-234.9 140.795-35.801 24.72-60.481 42.475-82.255 58.14-34.872 25.087-64.988 46.753-127.493 87.74-118.951 78-246.779 126.261-248.056 126.74a.979.979 0 0 1-.352.065zM3.423 463.724l427.732 248.54c8.382-3.189 131.977-50.803 247.219-126.372 62.469-40.964 92.57-62.618 127.422-87.692 21.782-15.67 46.47-33.431 82.287-58.162 184.69-127.526 300.698-171.065 317.419-176.992L778.33 16.782c-8.354 3.048-133.74 49.533-263.843 137.385-63.835 43.105-101.112 69.938-131.065 91.498-36.527 26.292-65.378 47.06-122.454 82.992-89.267 56.198-155.094 90.113-194.597 108.667-35.313 16.587-56.481 24.2-62.948 26.4zM433.767 669.06c-.177 0-.354-.047-.511-.14L95.801 468.413a1 1 0 0 1 .047-1.746c1.198-.626 121.297-63.562 249.566-144.314a699.27 699.27 0 0 0 5.726-3.646.998.998 0 0 1 1.54.814c2.042 74.587 85.657 150.765 198.818 181.135 48.655 13.057 101.782 17.959 149.597 13.802a1.001 1.001 0 0 1 .669 1.809 4995.052 4995.052 0 0 0-26.026 18.812C575.337 608.155 435.561 668.38 434.161 668.98c-.127.054-.26.08-.394.08zM98.359 467.606l335.48 199.334c8.992-3.896 143.412-62.651 240.723-133.479l.588.809-.588-.809a4853.597 4853.597 0 0 1 23.109-16.716c-47.098 3.631-99.034-1.368-146.69-14.158-113.112-30.356-196.925-106.364-200.236-181.25a636.218 636.218 0 0 1-4.264 2.708c-120.342 75.762-233.497 135.85-248.122 143.561zm756.956-58.644a.998.998 0 0 1-.999-1.046c1.678-36.182-16.008-74.131-49.803-106.854-34.927-33.821-83.706-59.834-141.063-75.227-57.053-15.312-120.97-20.114-175.36-13.174a.999.999 0 0 1-.721-1.797c12.225-9.021 25.252-18.19 39.826-28.031 100.851-68.1 238.281-127.771 239.658-128.366.289-.125.622-.106.896.051l352.309 202.884a1 1 0 0 1-.194 1.819c-.221.071-22.517 7.285-62.979 27.147-37.345 18.332-98.241 51.494-176.27 105.372l-.568-.823.568.823a19750.831 19750.831 0 0 1-24.732 17.046 1.012 1.012 0 0 1-.568.176zm-316.11-201.41c41.209 0 84.674 5.591 124.764 16.35 57.685 15.481 106.765 41.665 141.936 75.722 33.592 32.528 51.46 70.229 50.482 106.385 7.62-5.245 15.307-10.541 23.09-15.916 78.163-53.97 139.172-87.189 176.589-105.553 33.513-16.448 54.623-24.251 61.08-26.508L767.187 56.503c-8.86 3.864-141.104 61.969-238.872 127.988-13.334 9.004-25.371 17.444-36.682 25.722 15.267-1.782 31.245-2.661 47.572-2.661z"/><ellipse cx="826.587" cy="217.816" fill="#87c159" rx="61.698" ry="34.154"/><path d="M826.587 252.97c-34.572 0-62.698-15.77-62.698-35.154s28.126-35.154 62.698-35.154 62.698 15.77 62.698 35.154-28.126 35.154-62.698 35.154zm0-68.309c-33.469 0-60.698 14.873-60.698 33.154s27.229 33.154 60.698 33.154 60.698-14.873 60.698-33.154-27.229-33.154-60.698-33.154z"/><ellipse cx="380.519" cy="508.872" fill="#87c159" rx="61.698" ry="34.154"/><path d="M380.519 544.026c-34.572 0-62.698-15.77-62.698-35.154s28.126-35.154 62.698-35.154 62.698 15.77 62.698 35.154-28.126 35.154-62.698 35.154zm0-68.308c-33.469 0-60.698 14.873-60.698 33.154s27.229 33.154 60.698 33.154 60.698-14.873 60.698-33.154-27.229-33.154-60.698-33.154z"/><path d="M107.417 359.525v8.995L505.04 664.331s132.15-33.303 260.408-98.28c109.219-55.332 126.273-68.796 224.654-121.63 215.442-115.7 338.995-141.779 338.995-141.779v-7.81z"/><path d="M505.039 665.331a.997.997 0 0 1-.597-.198L106.82 369.322a.999.999 0 0 1-.403-.802v-8.995a1 1 0 0 1 .947-.999l1221.68-64.693a1 1 0 0 1 1.053.999v7.81a.999.999 0 0 1-.793.978c-.309.065-31.523 6.757-88.635 27.486-52.711 19.132-138.888 54.474-250.094 114.196-38.332 20.585-64.834 35.485-88.217 48.631-37.445 21.052-69.784 39.232-136.458 73.01-126.889 64.284-259.293 98.025-260.615 98.358-.082.02-.164.03-.246.03zM108.417 368.018l396.837 295.227c8.685-2.237 136.808-35.806 259.742-98.085 66.636-33.759 98.958-51.929 136.382-72.97 23.391-13.15 49.902-28.055 88.251-48.65 204.246-109.687 327.487-139.206 338.468-141.7v-5.954l-1219.68 64.587v7.545z"/><path d="M931.006 1.339s-133.16 31.43-278.17 107.376c-151.422 79.304-160.837 91.763-271.328 145.19C197.759 342.754 108.59 359.863 108.59 359.863L508.185 656.05s132.15-33.303 260.408-98.28c109.219-55.332 126.273-68.796 224.654-121.63 215.442-115.7 337.023-140.97 337.023-140.97z" fill="#fff"/><path d="M508.185 657.05a1 1 0 0 1-.595-.197L107.995 360.667a1 1 0 0 1 .407-1.786c.223-.043 22.789-4.453 67.492-19.65 41.258-14.026 110.346-40.372 205.179-86.227 60.663-29.333 90.089-45.886 130.817-68.797 32.177-18.101 72.222-40.628 140.483-76.378C795.834 32.694 929.443.68 930.776.365a1 1 0 0 1 .822.168l399.265 293.831a1 1 0 0 1-.389 1.784c-.304.063-31.024 6.553-87.648 27.082-52.261 18.947-137.901 54.069-249.105 113.79-38.331 20.585-64.834 35.485-88.217 48.631-37.445 21.052-69.784 39.232-136.458 73.01-126.89 64.284-259.293 98.025-260.616 98.358a.974.974 0 0 1-.245.031zM110.97 360.383l397.428 294.581c8.685-2.237 136.809-35.806 259.743-98.085 66.636-33.759 98.958-51.93 136.382-72.97 23.391-13.15 49.902-28.055 88.25-48.649 197.73-106.188 317.862-136.551 335.139-140.582L930.787 2.42c-8.641 2.1-138.42 34.347-277.488 107.181-68.234 35.736-108.265 58.255-140.43 76.349-39.225 22.066-70.207 39.494-130.927 68.855-94.965 45.919-164.156 72.3-205.478 86.344-36.939 12.556-58.822 17.767-65.494 19.234z"/><path d="M915.482 39.55S772.169 83.319 663.204 140.388c-113.783 59.591-113.176 78.3-196.202 118.447-138.074 66.764-274.7 113.22-274.7 113.22l323.61 239.27s145.711-43.998 254.769-106.107c79.946-45.53 145.645-79.968 219.571-119.669 161.89-86.94 252.783-105.18 252.783-105.18z" fill="#fff"/><path d="M515.911 612.324a.998.998 0 0 1-.595-.196l-323.61-239.27a1 1 0 0 1 .272-1.751c1.366-.464 138.151-47.201 274.587-113.173 40.285-19.479 60.727-33.819 84.396-50.424 24.958-17.509 53.246-37.353 111.778-68.008C770.541 83.043 913.756 39.032 915.19 38.594a1 1 0 0 1 .884.151l327.553 240.818a1 1 0 0 1-.396 1.786c-.227.046-23.188 4.734-65.608 19.972-39.153 14.064-103.36 40.246-186.898 85.109a26738.337 26738.337 0 0 1-43.337 23.207c-57.693 30.849-112.188 59.988-176.212 96.45C663.267 567.54 517.659 611.841 516.2 612.282a1.016 1.016 0 0 1-.289.042zM194.425 372.381l321.676 237.84c9.306-2.851 149.472-46.295 254.085-105.873 64.047-36.475 118.553-65.62 176.259-96.476 14.237-7.613 28.623-15.305 43.334-23.205 83.681-44.94 148.007-71.166 187.235-85.253 35.134-12.618 56.981-18.024 63.649-19.549L915.295 40.654c-9.234 2.855-147.121 45.887-251.627 100.62-58.417 30.595-86.649 50.4-111.557 67.874-23.74 16.654-44.243 31.038-84.674 50.587-128.041 61.912-256.386 106.896-273.012 112.646z"/><path d="M929.832 1s-133.16 31.43-278.17 107.376C500.24 187.68 490.824 200.14 380.334 253.566c-183.749 88.85-272.917 105.959-272.917 105.959l399.595 296.187s132.15-33.304 260.408-98.28c109.219-55.332 126.273-68.796 224.654-121.63 215.442-115.7 337.023-140.97 337.023-140.97zM769.507 504.879c-109.059 62.109-254.769 106.107-254.769 106.107L201.683 374.183s126.07-48.923 264.145-115.687a673.29 673.29 0 0 0 6.104-2.991c-6.192 73.443 66.833 159.53 178.065 203.143 48.196 18.897 100.089 29.254 147.473 30.427a4955.137 4955.137 0 0 0-27.963 15.804zm219.571-119.67c-8.932 4.797-17.742 9.516-26.474 14.188 11.743-73.786-55.921-158.524-170.048-203.272-55.973-21.947-118.434-33.514-173.187-32.669 12.242-7.078 26.257-14.815 42.66-23.406C770.995 82.981 914.308 39.212 914.308 39.212l327.553 240.818c0-.001-90.893 18.239-252.783 105.179z" fill="#87c159"/><path d="M507.012 656.712a1 1 0 0 1-.595-.197L106.821 360.328a1 1 0 0 1 .407-1.786c.223-.043 22.789-4.453 67.492-19.65 41.258-14.026 110.346-40.372 205.179-86.227 60.663-29.333 90.089-45.886 130.816-68.797 32.177-18.101 72.222-40.628 140.483-76.378C794.661 32.355 928.269.341 929.602.027a1 1 0 0 1 .822.168l399.265 293.831a1 1 0 0 1-.389 1.784c-.304.063-31.024 6.553-87.648 27.082-52.261 18.948-137.901 54.069-249.105 113.79-38.331 20.585-64.833 35.485-88.216 48.63-37.445 21.052-69.784 39.232-136.459 73.011-126.89 64.283-259.293 98.025-260.616 98.358a.972.972 0 0 1-.244.031zM109.797 360.044l397.428 294.581c8.685-2.237 136.81-35.806 259.743-98.085 66.637-33.759 98.958-51.93 136.383-72.97 23.391-13.15 49.902-28.055 88.25-48.649 197.73-106.188 317.862-136.552 335.139-140.582L929.614 2.081c-8.641 2.1-138.42 34.347-277.488 107.181-68.234 35.736-108.265 58.255-140.43 76.349-39.225 22.066-70.207 39.494-130.927 68.854-94.964 45.919-164.156 72.3-205.478 86.345-36.94 12.556-58.823 17.767-65.494 19.234zm404.941 251.942a.997.997 0 0 1-.604-.203L201.08 374.98a1.001 1.001 0 0 1 .242-1.73c1.26-.489 127.615-49.674 264.071-115.655a729.16 729.16 0 0 0 6.096-2.986 1.002 1.002 0 0 1 1.441.98c-6.268 74.351 68.353 159.358 177.433 202.128 46.9 18.389 99.152 29.17 147.133 30.358a1 1 0 0 1 .465 1.872 5015.422 5015.422 0 0 0-27.957 15.8c-107.908 61.454-253.517 105.755-254.975 106.195a.984.984 0 0 1-.291.044zM203.712 374.463 514.934 609.88c9.37-2.871 149.492-46.308 254.078-105.871l.495.869-.495-.869a4954.507 4954.507 0 0 1 24.825-14.042c-47.209-1.631-98.267-12.377-144.205-30.389-109.032-42.751-183.87-127.61-178.829-202.4-1.485.732-2.994 1.47-4.54 2.217C338.24 321.3 219.103 368.427 203.712 374.463zm758.892 25.934a1 1 0 0 1-.987-1.157c5.693-35.771-7.663-75.452-37.607-111.731-30.948-37.496-76.53-68.774-131.819-90.453-54.996-21.564-117.983-33.445-172.806-32.6a1 1 0 0 1-.516-1.865c13.156-7.607 27.122-15.269 42.697-23.426 107.801-56.459 251.016-100.47 252.45-100.908a1 1 0 0 1 .884.151l327.553 240.818a1 1 0 0 1-.395 1.786c-.227.046-23.188 4.734-65.608 19.972-39.152 14.064-103.359 40.245-186.898 85.108l-.473-.881.473.881c-8.933 4.797-17.743 9.516-26.475 14.188a1.018 1.018 0 0 1-.473.117zM624.895 162.413c53.75 0 114.638 11.847 168.027 32.781 55.604 21.802 101.468 53.284 132.632 91.042 29.765 36.063 43.328 75.518 38.334 111.341 8.157-4.365 16.384-8.773 24.718-13.248 83.681-44.94 148.007-71.166 187.235-85.253 35.138-12.618 56.984-18.024 63.649-19.549L914.121 40.316C904.887 43.17 767 86.202 662.494 140.935c-14.251 7.464-27.151 14.512-39.316 21.482a327.06 327.06 0 0 1 1.717-.004z"/><ellipse cx="955.208" cy="207.235" fill="#87c159" rx="34.154" ry="61.698" transform="matrix(.1112 -.9938 .9938 .1112 642.996 1133.46)"/><path d="M963.758 242.875c-4.085 0-8.254-.233-12.461-.704-34.356-3.846-60.554-22.647-58.397-41.911 2.156-19.264 31.855-31.808 66.219-27.961 16.543 1.852 31.711 7.169 42.71 14.973 11.173 7.927 16.745 17.494 15.687 26.938-1.057 9.444-8.605 17.542-21.255 22.803-9.285 3.861-20.527 5.862-32.503 5.862zm-17.065-69.277c-27.814 0-50.026 10.984-51.806 26.885-2.033 18.168 23.372 35.978 56.633 39.701 16.212 1.815 31.83.033 43.974-5.018 11.948-4.969 19.063-12.49 20.036-21.178.973-8.689-4.304-17.597-14.857-25.084-10.727-7.611-25.563-12.802-41.776-14.617a109.808 109.808 0 0 0-12.204-.689z"/><ellipse cx="479.53" cy="446.862" fill="#87c159" rx="34.154" ry="61.698" transform="matrix(.1112 -.9938 .9938 .1112 -17.9041 873.7036)"/><path d="M488.08 482.502c-4.085 0-8.254-.233-12.461-.704-16.543-1.852-31.711-7.169-42.711-14.973-11.173-7.927-16.744-17.494-15.687-26.938s8.606-17.542 21.255-22.803c12.452-5.178 28.421-7.011 44.964-5.159 34.357 3.846 60.554 22.647 58.398 41.911l-.994-.111.994.111c-1.057 9.444-8.606 17.542-21.255 22.803-9.285 3.862-20.527 5.863-32.503 5.863zm-17.113-69.281c-11.708 0-22.678 1.948-31.723 5.71-11.948 4.969-19.063 12.49-20.035 21.178-.973 8.689 4.303 17.597 14.857 25.084 10.727 7.611 25.563 12.802 41.776 14.617 16.211 1.815 31.829.033 43.974-5.018 11.948-4.969 19.063-12.49 20.035-21.179 2.034-18.168-23.372-35.978-56.633-39.701a110.567 110.567 0 0 0-12.251-.691z"/></svg></g><g transform="translate(2112.0 2322.0) rotate(-35.169973552485686 138.5999999999999 -138.60000000000002) translate(0.0 -3.6000000000000796) scale(1.1999999999999993 -1.2000000000000002)"><svg width="125" height="228" viewBox="0 3 125 228"><clipPath id="a"><path fill="#FFF" d="M57.75 0h115.5L231 231H0L57.75 0"/></clipPath><path fill="#FFF" d="M57.75 0h115.5L231 231H0L57.75 0" clip-path="url(#a)"/></svg></g><g transform="translate(235.2 463.2) rotate(0.0 324.0 469.19999999999993) scale(1.6899953838089055 1.6875694611790684)"><svg width="383.433" height="556.066" viewBox="0 0 383.433 556.066"><path d="M28.615 212.936c-1.913 3.528-.441 299.271-.335 340.541L7.903 541.734s-4.992-2.364-4.992-13.332c0-1.413-4.095-281.401-.294-311.181.554-4.345 1.791-8.632 3.589-12.698l22.409 8.415z"/><path d="M28.279 554.477a.995.995 0 0 1-.5-.134L7.402 542.6c-.156-.07-5.493-2.73-5.493-14.199 0-.098-.017-1.3-.046-3.472-.894-65.655-3.552-281.889-.24-307.836.558-4.37 1.792-8.735 3.667-12.976a1 1 0 0 1 1.266-.532L28.965 212a.998.998 0 0 1 .573 1.315c-1.549 6.392-.698 225.609-.377 308.207.058 14.827.101 26.019.116 31.952a1.003 1.003 0 0 1-1 1.003zM6.747 205.793c-1.588 3.79-2.643 7.672-3.139 11.553-3.295 25.819-.637 241.934.256 307.556.03 2.198.046 3.409.046 3.499 0 10.076 4.387 12.412 4.432 12.435l18.933 10.908c-.019-6.249-.059-16.727-.111-30.214-.798-205.501-.693-296.729.379-307.928z"/><path d="M374.926 14.664 352.611 2.317s-6.102-3.222-13.071.413C335.394 4.893 31.001 178.622 23.878 183.346c-7.629 5.06-13.892 12.628-17.673 21.175l22.409 8.415c1.112-2.051 346.312-198.272 346.312-198.272z" fill="#fff"/><path d="M28.614 213.936c-.117 0-.236-.021-.351-.064l-22.409-8.415a1.004 1.004 0 0 1-.563-1.341c3.893-8.8 10.297-16.473 18.035-21.604 8.289-5.497 313.72-179.609 315.752-180.668 7.347-3.833 13.731-.553 14-.411l22.333 12.356a.998.998 0 0 1 .01 1.744C257.755 82.418 34.383 209.675 29.344 213.621a1 1 0 0 1-.729.315zm-21.055-9.975 20.943 7.865c3.711-2.503 26.449-15.951 173.189-99.664 79.156-45.157 159.148-90.64 171.19-97.487L352.126 3.192c-.212-.11-5.731-2.91-12.125.425C337.971 4.676 32.712 178.686 24.43 184.18c-7.14 4.735-13.099 11.731-16.872 19.782z"/><path d="M358.125 15.204c-4.032 1.955-312.384 179.312-312.384 179.312s-18.898 9.013-22.223 30.777c-1.159 7.586-.167 279.116-.075 315.081-.158 24.357 22.545 12.634 34.437 5.731 0 0 290.411-164.18 298.868-169.491 11.286-7.087 23.259-16.337 24.801-32.103.704-7.194.771-278.919.884-316.156.042-13.661-12.638-18.811-24.308-13.152z" fill="#fff"/><path d="M34.205 556.053c-2.218 0-4.254-.432-5.999-1.443-3.871-2.246-5.81-7.038-5.764-14.241-.01-4.017-.032-10.994-.061-20.222-.384-123.716-.786-288.897.147-295.004 3.366-22.033 22.587-31.436 22.781-31.529 12.524-7.207 308.361-177.361 312.378-179.31 6.586-3.193 13.594-3.166 18.749.074 4.53 2.848 7.015 7.813 6.996 13.981-.028 9.116-.053 32.285-.085 62.186-.1 92.974-.268 248.585-.804 254.065-1.56 15.949-13.646 25.558-25.264 32.853-8.379 5.262-296.003 167.873-298.908 169.515-7.167 4.159-16.688 9.076-24.167 9.076zm324.356-539.95c-3.955 1.918-309.239 177.506-312.322 179.279-.251.124-18.531 9.1-21.733 30.061-1.018 6.661-.345 223.456-.124 294.696.028 9.229.05 16.206.061 20.232-.042 6.443 1.563 10.648 4.767 12.507 6.727 3.902 19.298-2.49 28.168-7.638 2.914-1.647 290.498-164.235 298.838-169.473 11.771-7.392 22.866-16.306 24.337-31.354.527-5.385.694-160.935.794-253.873.032-29.902.057-53.073.085-62.189.017-5.453-2.136-9.815-6.061-12.282-4.565-2.871-10.852-2.858-16.812.032z"/><path d="M275.476 247.954c-.497 26.244-11.158 54.5-24.174 77.044l28.54 19.074c20.291-35.41 32.684-76.956 35.767-117.977l-40.134 21.859z" fill="#adc4cb"/><path d="M279.842 345.073c-.196 0-.39-.058-.556-.168l-28.541-19.075a1.001 1.001 0 0 1-.311-1.332c8.723-15.107 23.445-45.143 24.04-76.563.007-.359.206-.687.521-.859l40.134-21.859a1.001 1.001 0 0 1 1.476.954c-3.11 41.381-15.858 83.43-35.896 118.399a1.001 1.001 0 0 1-.868.503zm-27.208-20.387 26.871 17.958c19.293-34.012 31.67-74.659 34.962-114.789l-38.005 20.7c-.759 31.099-15.017 60.705-23.829 76.13z"/><path d="M197.843 201.307c21.782-11.201 36.88-14.725 52.249-7.383 27.877 13.317 25.379 53.167 25.384 54.03 6.576-3.629 33.165-18.374 40.134-21.859 1.162-11.615-3.529-53.654-31.465-71.818-26.858-17.463-65.607-10.402-82.402-2.411-.473.225-4.121 2.209-4.558 2.435l.659 47.006z" fill="#dbf301"/><path d="M275.476 248.954a1 1 0 0 1-1-.993c0-.036.002-.128.008-.274.249-6.729.218-40.898-24.823-52.86-13.993-6.685-27.914-4.687-51.36 7.37a1 1 0 0 1-1.458-.875l-.659-47.006a1.002 1.002 0 0 1 .542-.903c.159-.082.746-.398 1.448-.777 1.596-.86 2.841-1.53 3.139-1.672 19.08-9.077 57.561-14.311 83.377 2.476 15.311 9.955 23.162 26.648 27.053 38.9 4.603 14.493 5.43 28.187 4.863 33.855a1 1 0 0 1-.548.795c-6.155 3.078-27.855 15.074-37.122 20.196l-2.976 1.645a1.002 1.002 0 0 1-.483.125zm-42.14-59.901c5.783 0 11.44 1.224 17.187 3.969 24.617 11.759 26.119 43.684 25.997 53.213l1.448-.8c9.042-4.999 29.912-16.536 36.695-19.983 1.017-12.837-4.481-53.053-31.063-70.336-27.572-17.926-66.767-9.322-81.427-2.347-.276.132-1.945 1.031-3.049 1.626l-.931.501.628 44.789c12.785-6.471 23.858-10.633 34.516-10.633z"/><path d="M197.843 201.307c-23.565 12.908-104.167 107.247-70.933 168.322 6.207 11.407 17.412 21.038 30.2 22.069 49 3.952 94.192-66.7 94.192-66.7l28.54 19.074s-27.164 50.149-79.756 82.471c-32.112 19.736-76.661 26.715-102.214-4.646-24.392-31.361-26.818-72.291-17.526-108.299 16.261-65.046 59.341-125.169 116.837-159.322l.659 47.03z" fill="#fff"/><path d="M145.303 444.397c-18.247 0-35.549-6.333-48.207-21.867-21.905-28.164-28.358-67.952-17.718-109.181 16.592-66.371 60.441-126.161 117.294-159.931a1 1 0 0 1 1.511.845l.66 47.03a1 1 0 0 1-.52.891c-11.317 6.199-37.207 32.487-56.38 65.721-16.257 28.179-31.909 68.618-14.154 101.245 6.733 12.373 17.999 20.631 29.402 21.551 47.826 3.856 92.82-65.541 93.269-66.243a1.003 1.003 0 0 1 1.398-.293l28.541 19.075c.429.287.569.854.324 1.308-.273.504-27.895 50.755-80.112 82.847-16.746 10.292-36.527 17.001-55.307 17.001zm50.905-288.369c-55.683 33.658-98.568 92.521-114.891 157.813-10.486 40.631-4.163 79.79 17.345 107.442 24.907 30.566 68.627 24.243 100.902 4.408 48.157-29.597 75.214-74.777 78.953-81.303l-26.933-18c-2.499 3.748-13.156 19.229-28.301 34.153-16.045 15.812-40.553 34.233-66.253 32.152-12.068-.974-23.946-9.629-30.998-22.588-18.198-33.441-2.334-74.579 14.179-103.201 19.066-33.049 44.843-59.366 56.624-66.178l-.627-44.7z"/></svg></g><g transform="translate(235.2 406.8) rotate(0.0 343.19999999999993 497.4) scale(1.7901432584049883 1.7889962702269153)"><svg width="383.433" height="556.066" viewBox="0 0 383.433 556.066"><g><g><path style="fill:#fff" d="M28.615 212.936c-1.913 3.528-.441 299.271-.335 340.541L7.903 541.734s-4.992-2.364-4.992-13.332c0-1.413-4.095-281.401-.294-311.181.554-4.345 1.791-8.632 3.589-12.698l22.409 8.415v-.002z"/><path d="M28.28 554.477c-.172 0-.345-.045-.5-.134L7.403 542.601c-.156-.07-5.492-2.729-5.492-14.198 0-.099-.017-1.3-.046-3.473-.894-65.655-3.552-281.888-.24-307.835.557-4.367 1.79-8.733 3.667-12.976a1.002 1.002 0 0 1 1.266-.532l22.409 8.415a.997.997 0 0 1 .573 1.313c-1.549 6.392-.698 225.617-.377 308.218.058 14.821.101 26.009.116 31.94a1 1 0 0 1-.999 1.004zM6.748 205.794c-1.589 3.792-2.644 7.674-3.138 11.553-3.297 25.818-.638 241.933.255 307.555.03 2.198.046 3.41.046 3.5 0 10.076 4.387 12.411 4.431 12.434l18.933 10.907c-.019-6.247-.059-16.722-.111-30.202-.798-205.509-.692-296.741.379-307.939l-20.795-7.808z"/></g><g><path style="fill:#fff" d="M374.926 14.664 352.611 2.317s-6.102-3.222-13.071.413C335.394 4.893 31.001 178.622 23.878 183.346c-7.629 5.06-13.892 12.628-17.673 21.175l22.409 8.415c1.112-2.051 346.312-198.272 346.312-198.272z"/><path d="M28.613 213.936c-.117 0-.236-.021-.351-.064l-22.409-8.415a1.004 1.004 0 0 1-.563-1.341c3.893-8.8 10.297-16.472 18.035-21.604 8.292-5.5 313.722-179.61 315.752-180.669 7.353-3.833 13.733-.552 14.001-.411l22.332 12.356a1 1 0 0 1 .01 1.744C257.754 82.417 34.382 209.674 29.343 213.621c-.19.202-.455.315-.73.315zm-21.054-9.975 20.943 7.865c3.711-2.503 26.45-15.951 173.19-99.664 79.156-45.157 159.147-90.64 171.19-97.486L352.127 3.192c-.212-.109-5.732-2.91-12.124.425-2.03 1.058-307.287 175.067-315.572 180.563-7.139 4.735-13.099 11.731-16.872 19.781z"/></g><g><path style="fill:#fff" d="M358.125 15.204c-4.032 1.955-312.384 179.312-312.384 179.312s-18.898 9.013-22.223 30.777c-1.159 7.586-.167 279.116-.075 315.081-.158 24.357 22.545 12.634 34.437 5.731 0 0 290.411-164.18 298.868-169.491 11.286-7.087 23.259-16.337 24.801-32.103.704-7.194.771-278.919.884-316.156.042-13.661-12.638-18.811-24.308-13.151z"/><path d="M34.205 556.053c-2.217 0-4.255-.433-5.999-1.444-3.871-2.245-5.81-7.037-5.764-14.241-.01-4.083-.033-11.228-.062-20.686-.382-123.522-.783-288.445.149-294.54 3.366-22.033 22.587-31.436 22.781-31.529 12.524-7.207 308.36-177.361 312.378-179.309 6.585-3.194 13.594-3.166 18.748.073 4.53 2.848 7.015 7.812 6.996 13.98-.027 9.075-.052 32.078-.084 61.784-.1 93.121-.268 248.978-.805 254.466-.875 8.95-4.562 19.853-25.264 32.853-8.38 5.262-296.004 167.873-298.908 169.515-7.166 4.161-16.686 9.078-24.166 9.078zM367.522 13.927c-2.896 0-5.97.725-8.961 2.176v.001C354.606 18.021 49.323 193.609 46.24 195.383c-.251.124-18.531 9.1-21.733 30.061-1.015 6.646-.345 223.102-.125 294.231.029 9.459.052 16.604.062 20.696-.042 6.443 1.562 10.648 4.767 12.508 6.731 3.901 19.298-2.489 28.168-7.639 2.914-1.646 290.497-164.235 298.838-169.473 11.771-7.392 22.866-16.305 24.338-31.354.527-5.392.695-161.188.795-254.273.032-29.708.057-52.713.084-61.788.017-5.453-2.136-9.814-6.061-12.281-2.274-1.43-4.976-2.144-7.851-2.144zm-9.397 1.277h.01-.01z"/></g><g><g><path style="fill:#adc4cb" d="M275.476 247.954c-.497 26.244-11.158 54.5-24.174 77.044l28.54 19.074c20.291-35.41 32.684-76.956 35.767-117.977l-40.134 21.859h.001z"/><path d="M279.842 345.072c-.196 0-.39-.058-.556-.169l-28.54-19.074a1 1 0 0 1-.311-1.331c8.723-15.107 23.445-45.143 24.04-76.563a1 1 0 0 1 .521-.859l40.134-21.859a1 1 0 0 1 1.475.954c-3.11 41.382-15.858 83.43-35.897 118.399a1.005 1.005 0 0 1-.866.502zm-27.208-20.386 26.871 17.959c19.294-34.012 31.671-74.659 34.963-114.789l-38.005 20.699c-.759 31.099-15.017 60.706-23.829 76.131z"/></g><g><path style="fill:#dbf301" d="M197.843 201.307c21.782-11.201 36.88-14.725 52.249-7.383 27.877 13.317 25.379 53.167 25.384 54.03 6.576-3.629 33.165-18.374 40.134-21.859 1.162-11.615-3.529-53.654-31.465-71.818-26.858-17.463-65.607-10.402-82.402-2.411-.473.225-4.121 2.209-4.558 2.435l.659 47.006h-.001z"/><path d="M275.476 248.954a.999.999 0 0 1-1-.994c0-.036.003-.127.008-.271.249-6.729.224-40.897-24.822-52.862-13.992-6.684-27.913-4.688-51.361 7.37a1 1 0 0 1-1.457-.875l-.658-47.006a1 1 0 0 1 .542-.903c.158-.082.743-.397 1.444-.775 1.598-.861 2.844-1.532 3.144-1.674 19.078-9.078 57.559-14.31 83.375 2.476 27.741 18.037 33.168 60.241 31.916 72.756a1 1 0 0 1-.548.795c-6.151 3.076-27.841 15.065-37.104 20.185l-2.995 1.655a1.015 1.015 0 0 1-.484.123zm-42.14-59.901c5.783 0 11.441 1.224 17.187 3.969 24.62 11.761 26.12 43.682 25.997 53.213l1.468-.811c9.037-4.996 29.896-16.525 36.677-19.971 1.017-12.837-4.48-53.052-31.064-70.337-27.569-17.927-66.764-9.321-81.427-2.346-.278.132-1.948 1.032-3.053 1.628l-.927.499.628 44.789c12.784-6.472 23.857-10.633 34.514-10.633z"/></g><g><path style="fill:#fff" d="M197.843 201.307c-23.565 12.908-104.167 107.247-70.933 168.322 6.207 11.407 17.412 21.038 30.2 22.069 49 3.952 94.192-66.7 94.192-66.7l28.54 19.074s-27.164 50.149-79.756 82.471c-32.112 19.736-76.661 26.715-102.214-4.646-24.392-31.361-26.818-72.291-17.526-108.299 16.261-65.046 59.341-125.169 116.837-159.322l.66 47.031z"/><path d="M145.303 444.396c-18.247.001-35.548-6.333-48.206-21.867-21.905-28.163-28.358-67.952-17.719-109.182 16.592-66.37 60.44-126.16 117.294-159.932a1.001 1.001 0 0 1 1.511.845l.659 47.03a.998.998 0 0 1-.519.892c-11.317 6.199-37.207 32.487-56.38 65.721-29.454 51.053-23.954 83.237-14.154 101.247 6.733 12.373 17.999 20.631 29.402 21.55 1.293.104 2.586.155 3.875.155 46.374.002 88.957-65.715 89.393-66.397a.996.996 0 0 1 .638-.439.985.985 0 0 1 .761.147l28.54 19.074a1 1 0 0 1 .323 1.308c-.272.504-27.896 50.755-80.111 82.846-16.746 10.294-36.527 17.002-55.307 17.002zm50.904-288.37c-55.683 33.659-98.568 92.522-114.891 157.813-10.485 40.633-4.162 79.791 17.345 107.443 24.907 30.568 68.627 24.243 100.901 4.408 48.156-29.597 75.215-74.777 78.953-81.303l-26.933-18c-2.498 3.748-13.155 19.229-28.3 34.154-16.046 15.812-40.562 34.211-66.254 32.152-12.068-.974-23.946-9.629-30.998-22.589-10.044-18.458-15.738-51.346 14.179-103.201 19.066-33.048 44.843-59.365 56.625-66.178l-.627-44.699z"/></g></g></g></svg></g><g transform="translate(2169.6 2022.0) rotate(0.0 237.5999999999999 138.5999999999999) scale(2.0097867139225936 2.0027020583326696)"><svg width="236.443" height="138.413" viewBox="0 0 236.443 138.413"><ellipse cx="118.221" cy="69.207" fill="#fff" rx="117.221" ry="68.207"/><path d="M118.221 138.413C53.034 138.413 0 107.367 0 69.207S53.034 0 118.221 0s118.222 31.046 118.222 69.207-53.034 69.206-118.222 69.206zm0-136.413C54.137 2 2 32.149 2 69.207s52.137 67.207 116.221 67.207c64.085 0 116.222-30.149 116.222-67.207S182.306 2 118.221 2z"/><ellipse cx="117.782" cy="69.207" fill="#FFF" rx="103.779" ry="59.449"/><path d="M117.782 129.656c-57.775 0-104.778-27.117-104.778-60.449S60.007 8.758 117.782 8.758 222.56 35.875 222.56 69.207c0 33.331-47.003 60.449-104.778 60.449zm0-118.899c-56.672 0-102.778 26.22-102.778 58.449s46.106 58.449 102.778 58.449 102.778-26.22 102.778-58.449-46.106-58.449-102.778-58.449z"/><path d="m60.662 58.266 74.428 43.371s-32.474 11.299-64.307-10.985C43.438 71.51 60.662 58.266 60.662 58.266z" fill="#fff"/><path d="M114.66 105.439c-12.277 0-28.501-2.803-44.45-13.968C59.822 84.2 54.474 76.864 54.313 69.668c-.17-7.563 5.498-12.009 5.739-12.195a1 1 0 0 1 1.113-.071l74.428 43.371a1 1 0 0 1-.175 1.808c-.165.058-8.493 2.858-20.758 2.858zM60.779 59.492c-1.279 1.204-4.597 4.846-4.466 10.158.159 6.516 5.221 13.306 15.043 20.182 26.338 18.438 53.43 13.475 61.205 11.489z"/><path d="M60.355 82.384a.999.999 0 0 1-.524-1.852l19.476-11.948a1 1 0 0 1 1.045 1.704L60.876 82.236a.99.99 0 0 1-.521.148zM75.047 93.86a1 1 0 0 1-.517-1.857l22.11-13.327a1 1 0 1 1 1.033 1.713l-22.11 13.327c-.162.097-.34.144-.516.144zm20.154 9.162a1 1 0 0 1-.528-1.851L114.336 89a1 1 0 1 1 1.053 1.701l-19.663 12.171a1 1 0 0 1-.525.15zm23.852-45.689a1 1 0 0 1-.557-1.831c.047-.031 4.688-3.184 4.781-6.771.042-1.606-.883-3.13-2.751-4.53-11.287-8.458-25.744-1.426-25.889-1.354a1 1 0 0 1-.894-1.79c.636-.317 15.695-7.663 27.981 1.543 2.419 1.813 3.614 3.895 3.551 6.189-.126 4.622-5.443 8.224-5.67 8.375a.971.971 0 0 1-.552.169zm46.351 25.89a1 1 0 0 1-.557-1.831c.047-.031 4.688-3.185 4.781-6.771.042-1.606-.883-3.131-2.751-4.53-11.288-8.458-25.743-1.426-25.889-1.354a1 1 0 0 1-.894-1.79c.636-.317 15.694-7.665 27.981 1.543 2.419 1.813 3.613 3.895 3.551 6.189-.126 4.622-5.443 8.224-5.669 8.375a.979.979 0 0 1-.553.169z"/></svg></g><g transform="translate(217.2 363.59999999999997) rotate(0.0 363.6 527.4) scale(1.8965503751633273 1.896897130916114)"><svg width="383.433" height="556.066" viewBox="0 0 383.433 556.066"><g><g><path style="fill:#adc4cb" d="M28.615 212.936c-1.913 3.528-.441 299.271-.335 340.541L7.903 541.734s-4.992-2.364-4.992-13.332c0-1.413-4.095-281.401-.294-311.181.554-4.345 1.791-8.632 3.589-12.698l22.409 8.415v-.002z"/><path d="M28.28 554.477c-.172 0-.345-.045-.5-.134L7.403 542.601c-.156-.07-5.492-2.729-5.492-14.198 0-.099-.017-1.3-.046-3.473-.894-65.655-3.552-281.888-.24-307.835.557-4.367 1.79-8.733 3.667-12.976a1.002 1.002 0 0 1 1.266-.532l22.409 8.415a.997.997 0 0 1 .573 1.313c-1.549 6.392-.698 225.617-.377 308.218.058 14.821.101 26.009.116 31.94a1 1 0 0 1-.999 1.004zM6.748 205.794c-1.589 3.792-2.644 7.674-3.138 11.553-3.297 25.818-.638 241.933.255 307.555.03 2.198.046 3.41.046 3.5 0 10.076 4.387 12.411 4.431 12.434l18.933 10.907c-.019-6.247-.059-16.722-.111-30.202-.798-205.509-.692-296.741.379-307.939l-20.795-7.808z"/></g><g><path style="fill:#fff" d="M374.926 14.664 352.611 2.317s-6.102-3.222-13.071.413C335.394 4.893 31.001 178.622 23.878 183.346c-7.629 5.06-13.892 12.628-17.673 21.175l22.409 8.415c1.112-2.051 346.312-198.272 346.312-198.272z"/><path d="M28.613 213.936c-.117 0-.236-.021-.351-.064l-22.409-8.415a1.004 1.004 0 0 1-.563-1.341c3.893-8.8 10.297-16.472 18.035-21.604 8.292-5.5 313.722-179.61 315.752-180.669 7.353-3.833 13.733-.552 14.001-.411l22.332 12.356a1 1 0 0 1 .01 1.744C257.754 82.417 34.382 209.674 29.343 213.621c-.19.202-.455.315-.73.315zm-21.054-9.975 20.943 7.865c3.711-2.503 26.45-15.951 173.19-99.664 79.156-45.157 159.147-90.64 171.19-97.486L352.127 3.192c-.212-.109-5.732-2.91-12.124.425-2.03 1.058-307.287 175.067-315.572 180.563-7.139 4.735-13.099 11.731-16.872 19.781z"/></g><g><path style="fill:#fff" d="M358.125 15.204c-4.032 1.955-312.384 179.312-312.384 179.312s-18.898 9.013-22.223 30.777c-1.159 7.586-.167 279.116-.075 315.081-.158 24.357 22.545 12.634 34.437 5.731 0 0 290.411-164.18 298.868-169.491 11.286-7.087 23.259-16.337 24.801-32.103.704-7.194.771-278.919.884-316.156.042-13.661-12.638-18.811-24.308-13.151z"/><path d="M34.205 556.053c-2.217 0-4.255-.433-5.999-1.444-3.871-2.245-5.81-7.037-5.764-14.241-.01-4.083-.033-11.228-.062-20.686-.382-123.522-.783-288.445.149-294.54 3.366-22.033 22.587-31.436 22.781-31.529 12.524-7.207 308.36-177.361 312.378-179.309 6.585-3.194 13.594-3.166 18.748.073 4.53 2.848 7.015 7.812 6.996 13.98-.027 9.075-.052 32.078-.084 61.784-.1 93.121-.268 248.978-.805 254.466-.875 8.95-4.562 19.853-25.264 32.853-8.38 5.262-296.004 167.873-298.908 169.515-7.166 4.161-16.686 9.078-24.166 9.078zM367.523 13.927c-2.896 0-5.97.726-8.962 2.177-3.955 1.917-309.238 177.505-312.321 179.279-.251.124-18.531 9.1-21.733 30.061-1.015 6.646-.345 223.102-.125 294.231.029 9.459.052 16.604.062 20.696-.042 6.443 1.562 10.648 4.767 12.508 6.731 3.901 19.298-2.489 28.168-7.639 2.914-1.646 290.497-164.235 298.838-169.473 11.771-7.392 22.866-16.305 24.338-31.354.527-5.392.695-161.188.795-254.273.032-29.708.057-52.713.084-61.788.017-5.453-2.136-9.814-6.061-12.281-2.274-1.429-4.976-2.144-7.85-2.144zm-9.398 1.277h.01-.01z"/></g><g><g><path style="fill:#adc4cb" d="M275.476 247.954c-.497 26.244-11.158 54.5-24.174 77.044l28.54 19.074c20.291-35.41 32.684-76.956 35.767-117.977l-40.134 21.859h.001z"/><path d="M279.842 345.072c-.196 0-.39-.058-.556-.169l-28.54-19.074a1 1 0 0 1-.311-1.331c8.723-15.107 23.445-45.143 24.04-76.563a1 1 0 0 1 .521-.859l40.134-21.859a1 1 0 0 1 1.475.954c-3.11 41.382-15.858 83.43-35.897 118.399a1.005 1.005 0 0 1-.866.502zm-27.208-20.386 26.871 17.959c19.294-34.012 31.671-74.659 34.963-114.789l-38.005 20.699c-.759 31.099-15.017 60.706-23.829 76.131z"/></g><g><path style="fill:#dbf301" d="M197.843 201.307c21.782-11.201 36.88-14.725 52.249-7.383 27.877 13.317 25.379 53.167 25.384 54.03 6.576-3.629 33.165-18.374 40.134-21.859 1.162-11.615-3.529-53.654-31.465-71.818-26.858-17.463-65.607-10.402-82.402-2.411-.473.225-4.121 2.209-4.558 2.435l.659 47.006h-.001z"/><path d="M275.476 248.954a.999.999 0 0 1-1-.994c0-.036.003-.127.008-.271.249-6.729.224-40.897-24.822-52.862-13.992-6.684-27.913-4.688-51.361 7.37a1 1 0 0 1-1.457-.875l-.658-47.006a1 1 0 0 1 .542-.903c.158-.082.743-.397 1.444-.775 1.598-.861 2.844-1.532 3.144-1.674 19.078-9.078 57.559-14.31 83.375 2.476 27.741 18.037 33.168 60.241 31.916 72.756a1 1 0 0 1-.548.795c-6.151 3.076-27.841 15.065-37.104 20.185l-2.995 1.655a1.015 1.015 0 0 1-.484.123zm-42.14-59.901c5.783 0 11.441 1.224 17.187 3.969 24.62 11.761 26.12 43.682 25.997 53.213l1.468-.811c9.037-4.996 29.896-16.525 36.677-19.971 1.017-12.837-4.48-53.052-31.064-70.337-27.569-17.927-66.764-9.321-81.427-2.346-.278.132-1.948 1.032-3.053 1.628l-.927.499.628 44.789c12.784-6.472 23.857-10.633 34.514-10.633z"/></g><g><path style="fill:#fff" d="M197.843 201.307c-23.565 12.908-104.167 107.247-70.933 168.322 6.207 11.407 17.412 21.038 30.2 22.069 49 3.952 94.192-66.7 94.192-66.7l28.54 19.074s-27.164 50.149-79.756 82.471c-32.112 19.736-76.661 26.715-102.214-4.646-24.392-31.361-26.818-72.291-17.526-108.299 16.261-65.046 59.341-125.169 116.837-159.322l.66 47.031z"/><path d="M145.303 444.396c-18.247.001-35.548-6.333-48.206-21.867-21.905-28.163-28.358-67.952-17.719-109.182 16.592-66.37 60.44-126.16 117.294-159.932a1.001 1.001 0 0 1 1.511.845l.66 47.031a.998.998 0 0 1-.52.891c-11.317 6.199-37.207 32.487-56.38 65.721-29.454 51.053-23.954 83.237-14.154 101.247 6.733 12.373 17.999 20.631 29.402 21.55 1.293.104 2.586.155 3.875.155 46.374.002 88.957-65.715 89.393-66.397a.996.996 0 0 1 .638-.439.985.985 0 0 1 .761.147l28.54 19.074a1 1 0 0 1 .323 1.308c-.272.504-27.896 50.755-80.111 82.846-16.746 10.294-36.527 17.002-55.307 17.002zm50.904-288.37c-55.683 33.659-98.568 92.522-114.891 157.813-10.485 40.633-4.162 79.791 17.345 107.443 24.907 30.568 68.627 24.243 100.901 4.408 48.156-29.597 75.215-74.777 78.953-81.303l-26.933-18c-2.498 3.748-13.155 19.229-28.3 34.154-16.046 15.812-40.562 34.211-66.254 32.152-12.068-.974-23.946-9.629-30.998-22.589-10.044-18.458-15.738-51.346 14.179-103.201 19.066-33.048 44.843-59.365 56.625-66.178l-.627-44.699z"/></g></g></g></svg></g><g transform="translate(2221.2 2053.2) rotate(0.0 184.79999999999995 106.79999999999995) scale(1.1999999999999997 1.1999999999999995)"><svg width="308" height="178" viewBox="0 0 308 178"><clipPath id="b"><ellipse cx="154" cy="89" rx="154" ry="89" fill="#FFF"/></clipPath><ellipse cx="154" cy="89" rx="154" ry="89" fill="#FFF" clip-path="url(#b)"/></svg></g><g transform="translate(2298.0 2096.4) rotate(-40.01101624351501 94.20000000000005 57.0) scale(0.3551527307550202 0.35945589728390076)"><svg width="530.476" height="317.146" viewBox="0 0 530.476 317.146"><path d="M7.547 318.219a8 8 0 0 1-7.835-9.66c19.032-89.827 72.297-159.297 112.75-179.057 19.966-9.752 37.694-10.963 52.695-3.597 6.78 3.329 12.982 8.377 18.699 15.25a248.153 248.153 0 0 1 9.46-11.233c21.575-24.074 42.454-36.799 60.377-36.799 8.794 0 25.565 2.038 39.079 15.686a55.183 55.183 0 0 1 5.464 6.449c9.371-10.808 19.561-20.116 30.074-26.266 15.993-9.355 31.788-10.763 45.677-4.069 4.482 2.16 8.334 5.188 11.625 8.838C433.926 26.02 517.019.356 520.629-.732a8 8 0 0 1 4.62 15.319c-.854.258-85.963 26.638-130.275 93.809-.033.05-.065.1-.098.148 7.18 16.44 8.595 36.929 7.026 51.407-2.353 21.702-13.723 37.758-27.65 39.044-8.099.752-15.392-2.902-19.507-9.768-6.634-11.068-7.906-34.104 21.606-81.437-2.606-3.783-5.709-6.72-9.307-8.453-9.123-4.396-19.149-3.264-30.653 3.466-10.545 6.168-20.798 16.122-30.084 27.568 4.518 11.786 6.712 26.164 6.546 43.014-.328 33.222-12.005 49.099-18.937 55.605-6.212 5.832-13.54 8.843-20.624 8.458-7.11-.379-13.116-3.105-17.369-7.885-3.373-3.791-7.237-10.787-6.489-22.589.861-13.595 16.326-48.829 38.3-78.564-1.835-3.154-3.945-5.937-6.33-8.344-8.956-9.045-20.012-10.943-27.709-10.943-14.72 0-36.283 14.635-60.311 45.946a139.788 139.788 0 0 1 4.162 7.851c10.921 22.227 4.132 53.38-5.864 75.122-11.808 25.684-29.254 43.696-46.67 48.185-6.086 1.568-15.226.956-20.964-5.925-7.237-8.68-5.955-23.286 3.922-44.653 14.546-31.472 30.157-59.029 45.957-81.257-4.941-6.688-10.18-11.355-15.819-14.125-10.479-5.145-23.111-3.963-38.62 3.612-37.573 18.352-86.792 86.208-104.121 167.996a8.008 8.008 0 0 1-7.82 6.344zm175.406-148.71c-13.185 19.323-26.894 43.501-40.461 72.854-10.312 22.311-6.331 27.484-6.156 27.694.836 1.003 3.533.976 4.682.677 12.421-3.201 26.602-18.656 36.126-39.373 10.63-23.123 13.002-47.218 6.041-61.383-.078-.158-.154-.314-.232-.469zm111.495-23.036C277.589 171.551 266 198.524 265.4 207.987c-.316 4.983.54 8.768 2.475 10.941 1.369 1.539 3.478 2.395 6.267 2.544 2.689.128 5.821-1.33 8.822-4.146 4.083-3.833 13.609-15.803 13.888-44.099.099-10.057-.706-18.986-2.404-26.754zm89.562-20.313c-22.865 40.082-16.46 53.311-15.542 54.843.65 1.085 1.729 2.299 4.311 2.061 3.591-.332 11.411-8.186 13.215-24.837 1.132-10.446.464-21.928-1.984-32.067z"/></svg></g><g transform="translate(2396.4 2096.4) rotate(-118.69688643886032 57.59999999999991 81.59999999999991) scale(1.6375266524520231 1.6478190630048446)"><svg width="70.35" height="99.04" viewBox="0 0 70.35 99.04"><path d="M68.974 99.04a1.375 1.375 0 0 1-1.345-1.093c-4.841-23.121-11.82-37.419-23.007-55.715C36.478 28.924 22.274 11.254.862 2.65A1.372 1.372 0 0 1 .1.862 1.371 1.371 0 0 1 1.888.099c22.11 8.884 36.719 27.035 45.08 40.698 11.348 18.56 18.431 33.073 23.353 56.585a1.375 1.375 0 0 1-1.347 1.658z"/></svg></g></svg>